Coordinates
version=1
nRows=20
nColumns=38
inDegrees=no

Units are S.I. units (second, meters, Newtons, ...)
If the header above contains a line with 'inDegrees', this indicates whether rotational values are in degrees (yes) or radians (no).

endheader
time	pelvis_tilt	pelvis_list	pelvis_rotation	pelvis_tx	pelvis_ty	pelvis_tz	hip_flexion_r	hip_adduction_r	hip_rotation_r	knee_angle_r	ankle_angle_r	subtalar_angle_r	mtp_angle_r	hip_flexion_l	hip_adduction_l	hip_rotation_l	knee_angle_l	ankle_angle_l	subtalar_angle_l	mtp_angle_l	lumbar_extension	lumbar_bending	lumbar_rotation	arm_flex_r	arm_add_r	arm_rot_r	elbow_flex_r	pro_sup_r	wrist_flex_r	wrist_dev_r	arm_flex_l	arm_add_l	arm_rot_l	elbow_flex_l	pro_sup_l	wrist_flex_l	wrist_dev_l
1.62	-2.61522	1.50012	-2.09202	0.763464	0.925715	0.923136	-0.243499	-0.0141588	-0.314413	0.20687	0.285673	0	0	0.278775	-0.0081314	-0.234114	0	0.0120555	0	0	-0.215827	-0.00390698	-0.0192965	0.0451385	-0.345488	0.396663	0.777153	1.29925	0	0	-0.108996	-0.28511	0.431714	0.707126	0.886654	0	0
1.63	-2.64772	1.4993	-2.05859	0.763073	0.935297	0.921271	-0.2553	-0.0136486	-0.317117	0.211912	0.292122	0	0	0.285805	-0.00553961	-0.221639	0	0.0164709	0	0	-0.21901	-0.00465925	-0.0186182	0.0492251	-0.342106	0.395178	0.769776	1.2998	0	0	-0.106288	-0.286412	0.437717	0.704444	0.896051	0	0
1.64	-2.67274	1.49798	-2.03491	0.762731	0.945251	0.919498	-0.266404	-0.0149626	-0.318768	0.218827	0.298154	0	0	0.289651	-0.00245038	-0.213103	0	0.021324	0	0	-0.221895	-0.00631838	-0.0161701	0.0525159	-0.33856	0.392533	0.762059	1.30107	0	0	-0.103917	-0.287206	0.442193	0.701151	0.905066	0	0
1.65	-2.68746	1.4961	-2.02311	0.762449	0.95563	0.917846	-0.277067	-0.018054	-0.31977	0.227394	0.303805	0	0	0.290309	0.00130817	-0.206314	0	0.0243942	0	0	-0.22423	-0.00920204	-0.0126538	0.0549743	-0.335152	0.3903	0.754297	1.3026	0	0	-0.102264	-0.287885	0.44552	0.69779	0.913521	0	0
1.66	-2.68955	1.49421	-2.02494	0.762214	0.966458	0.916275	-0.286932	-0.0224593	-0.32012	0.237285	0.309012	0	0	0.288727	0.00556037	-0.201265	0	0.0247281	0	0	-0.225343	-0.0132975	-0.00863584	0.0564311	-0.33153	0.388086	0.746412	1.30422	0	0	-0.101473	-0.288841	0.448297	0.694807	0.921067	0	0
1.67	-2.68038	1.49242	-2.03865	0.762012	0.977676	0.914802	-0.296134	-0.0280412	-0.319406	0.248021	0.313092	0	0	0.284936	0.0104037	-0.195585	0	0.0207477	0	0	-0.225115	-0.0184518	-0.00428425	0.0568229	-0.327886	0.386442	0.738388	1.3062	0	0	-0.101553	-0.28997	0.45054	0.692032	0.927161	0	0
1.68	-2.66176	1.49091	-2.06153	0.761718	0.989278	0.913402	-0.304467	-0.0344934	-0.319191	0.259663	0.315627	0	0	0.279217	0.0161095	-0.186379	0	0.011964	0	0	-0.223351	-0.02428	-0.000621978	0.0560968	-0.323667	0.383984	0.729925	1.30859	0	0	-0.102749	-0.291244	0.451994	0.689288	0.931775	0	0
1.69	-2.6471	1.49062	-2.08318	0.761359	1.00132	0.91216	-0.312609	-0.0456677	-0.32391	0.272019	0.320753	0	0	0.269013	0.0201189	-0.17789	0	0.00182828	0	0	-0.219802	-0.0292697	0.00494459	0.0543277	-0.319821	0.380659	0.721861	1.31127	0	0	-0.105018	-0.291662	0.452525	0.686477	0.934943	0	0
1.7	-2.63795	1.48655	-2.09775	0.76094	1.01278	0.911142	-0.320506	-0.0545413	-0.321644	0.288927	0.320881	0	0	0.27604	0.0229184	-0.18201	0.0357873	0.00236201	0	0	-0.220852	-0.0360578	0.0102865	0.0526931	-0.316778	0.378482	0.714954	1.31428	0	0	-0.105632	-0.292606	0.453695	0.683891	0.937384	0	0
1.71	-2.62843	1.48571	-2.11201	0.760401	1.02446	0.909933	-0.324288	-0.0620185	-0.319225	0.307946	0.318489	0	0	0.290399	0.0224375	-0.196183	0.0875823	0.00979967	0	0	-0.218053	-0.0410708	0.0149215	0.0502846	-0.31426	0.37772	0.707967	1.3179	0	0	-0.107553	-0.293199	0.453563	0.681401	0.938717	0	0
1.72	-2.61654	1.48603	-2.1297	0.759837	1.03627	0.908782	-0.325013	-0.069978	-0.314328	0.329994	0.314019	0	0	0.303415	0.0204573	-0.210659	0.131848	0.00650048	0	0	-0.213573	-0.0456344	0.0202396	0.047454	-0.312121	0.377315	0.701053	1.32161	0	0	-0.110297	-0.293119	0.451447	0.67889	0.93812	0	0
1.73	-2.60019	1.48603	-2.15199	0.75914	1.04816	0.907893	-0.323527	-0.0794573	-0.308335	0.355842	0.307056	0	0	0.313156	0.0180102	-0.225341	0.16731	-0.0113564	0	0	-0.208954	-0.0505746	0.0251467	0.0446888	-0.310086	0.377321	0.69376	1.32575	0	0	-0.113519	-0.292693	0.447594	0.677152	0.936139	0	0
1.74	-2.64671	1.48218	-2.13208	0.759242	1.05782	0.908056	-0.312645	-0.095266	-0.274293	0.399351	0.298128	0	0	0.316061	0.00495784	-0.264048	0.203298	-0.0314644	0	0	-0.216344	-0.053672	0.0497427	0.0484281	-0.315666	0.381257	0.691868	1.32917	0	0	-0.10878	-0.28562	0.441901	0.671652	0.932252	0	0
1.75	-2.54279	1.48361	-2.21348	0.756664	1.07283	0.907067	-0.316758	-0.102597	-0.303502	0.417512	0.279922	0	0	0.330421	0.0133415	-0.258548	0.24319	-0.0389719	0	0	-0.198948	-0.0624265	0.0261984	0.0372838	-0.304948	0.378032	0.677668	1.33333	0	0	-0.121957	-0.291725	0.436921	0.672358	0.929733	0	0
1.76	-2.50475	1.48276	-2.25143	0.755133	1.08524	0.906999	-0.307844	-0.11575	-0.302329	0.45632	0.258254	0	0	0.344021	0.00949527	-0.275105	0.295405	-0.0288589	0	0	-0.192926	-0.0684814	0.0240521	0.0339633	-0.301489	0.377844	0.667296	1.34014	0	0	-0.126664	-0.291937	0.432713	0.670261	0.924802	0	0
1.77	-2.48158	1.47981	-2.27465	0.753532	1.09768	0.907514	-0.298321	-0.130042	-0.298406	0.499013	0.229611	0	0	0.352369	0.00746229	-0.284128	0.343774	-0.0130472	0	0	-0.189508	-0.0745942	0.0219435	0.0301087	-0.298436	0.377096	0.658613	1.34617	0	0	-0.130305	-0.29243	0.430468	0.668149	0.918119	0	0
1.78	-2.45048	1.4757	-2.30426	0.751663	1.11012	0.908461	-0.285078	-0.146982	-0.294775	0.547249	0.191666	0	0	0.354191	0.0112814	-0.282656	0.378969	0.00132067	0	0	-0.18643	-0.0817822	0.0179768	0.0263684	-0.29478	0.374916	0.64915	1.3547	0	0	-0.133303	-0.294081	0.431797	0.666921	0.904588	0	0
1.79	-2.41289	1.47261	-2.33869	0.749506	1.12249	0.909436	-0.265747	-0.164561	-0.29046	0.600802	0.144192	0	0	0.354788	0.0154224	-0.285623	0.409041	0.0165718	0	0	-0.181888	-0.0881783	0.0124707	0.0220239	-0.292512	0.375248	0.642091	1.35908	0	0	-0.135989	-0.29656	0.435669	0.666612	0.890584	0	0
1.8	-2.3538	1.4706	-2.3934	0.747194	1.13467	0.910303	-0.239255	-0.183204	-0.284393	0.658348	0.0870141	0	0	0.351173	0.0239005	-0.285659	0.423779	0.027519	0	0	-0.17492	-0.095034	0.00576517	0.0170948	-0.290716	0.376558	0.636895	1.36018	0	0	-0.138307	-0.300156	0.44156	0.667479	0.875141	0	0
1.81	-2.27495	1.46928	-2.46748	0.744781	1.14663	0.910971	-0.206684	-0.202275	-0.27472	0.71774	0.0232601	0	0	0.343956	0.0363822	-0.282381	0.42458	0.0329166	0	0	-0.165504	-0.102288	-0.0015511	0.0120183	-0.289956	0.379863	0.63388	1.35868	0	0	-0.140498	-0.30473	0.448986	0.669989	0.859379	0	0
